<svg width="200" height="200" viewBox="0 0 200 200" fill="none" xmlns="http://www.w3.org/2000/svg">
<path d="M46.875 9.375C43.5598 9.375 40.3804 10.692 38.0362 13.0362C35.692 15.3804 34.375 18.5598 34.375 21.875V178.125C34.375 181.44 33.058 184.62 30.7138 186.964C28.3696 189.308 25.1902 190.625 21.875 190.625H153.125C156.44 190.625 159.62 189.308 161.964 186.964C164.308 184.62 165.625 181.44 165.625 178.125V21.875C165.625 18.5598 166.942 15.3804 169.286 13.0362C171.63 10.692 174.81 9.375 178.125 9.375H46.875ZM146.875 146.875H53.125V134.375H146.875V146.875ZM100 121.875C90.1109 121.875 80.4439 118.943 72.2215 113.448C63.999 107.954 57.5904 100.145 53.806 91.0092C50.0216 81.8729 49.0315 71.8195 50.9607 62.1205C52.89 52.4214 57.652 43.5123 64.6447 36.5197C71.6373 29.527 80.5464 24.765 90.2455 22.8357C99.9445 20.9065 109.998 21.8966 119.134 25.681C128.27 29.4654 136.079 35.874 141.573 44.0965C147.068 52.3189 150 61.9859 150 71.875C150 85.1358 144.732 97.8535 135.355 107.23C125.979 116.607 113.261 121.875 100 121.875Z" fill="#F1F1F1"/>
<path d="M100 53.125C101.656 53.1299 103.243 53.79 104.414 54.961C105.585 56.1321 106.245 57.7189 106.25 59.375H118.75C118.75 55.5003 117.547 51.7211 115.308 48.5587C113.069 45.3963 109.905 43.0064 106.25 41.7188V34.375H93.75V41.6875C89.5729 43.1569 86.0507 46.0572 83.8071 49.8747C81.5635 53.6922 80.7434 58.1806 81.492 62.5449C82.2406 66.9091 84.5095 70.8676 87.8971 73.7192C91.2846 76.5709 95.572 78.1316 100 78.125C101.236 78.125 102.445 78.4916 103.472 79.1783C104.5 79.8651 105.301 80.8412 105.774 81.9832C106.247 83.1253 106.371 84.3819 106.13 85.5943C105.889 86.8067 105.294 87.9203 104.419 88.7944C103.545 89.6685 102.432 90.2638 101.219 90.5049C100.007 90.7461 98.7503 90.6223 97.6082 90.1492C96.4662 89.6762 95.4901 88.8751 94.8033 87.8473C94.1166 86.8195 93.75 85.6111 93.75 84.375H81.25C81.2503 88.2497 82.4529 92.0289 84.6917 95.1913C86.9306 98.3537 90.0955 100.744 93.75 102.031V109.375H106.25V102.031C110.405 100.546 113.903 97.6436 116.129 93.8338C118.355 90.024 119.166 85.5512 118.42 81.2024C117.673 76.8536 115.417 72.9074 112.048 70.0582C108.678 67.2089 104.412 65.6391 100 65.625C98.3424 65.625 96.7527 64.9665 95.5806 63.7944C94.4085 62.6223 93.75 61.0326 93.75 59.375C93.75 57.7174 94.4085 56.1277 95.5806 54.9556C96.7527 53.7835 98.3424 53.125 100 53.125V53.125Z" fill="#F1F1F1"/>
<path d="M178.125 6.25H46.875C42.731 6.25 38.7567 7.8962 35.8265 10.8265C32.8962 13.7567 31.25 17.731 31.25 21.875V156.25H9.375C8.5462 156.25 7.75134 156.579 7.16529 157.165C6.57924 157.751 6.25 158.546 6.25 159.375V178.125C6.25 182.269 7.8962 186.243 10.8265 189.174C13.7567 192.104 17.731 193.75 21.875 193.75H153.125C157.269 193.75 161.243 192.104 164.174 189.174C167.104 186.243 168.75 182.269 168.75 178.125V43.75H190.625C191.454 43.75 192.249 43.4208 192.835 42.8347C193.421 42.2487 193.75 41.4538 193.75 40.625V21.875C193.75 17.731 192.104 13.7567 189.174 10.8265C186.243 7.8962 182.269 6.25 178.125 6.25V6.25ZM31.25 178.125C31.25 180.611 30.2623 182.996 28.5041 184.754C26.746 186.512 24.3614 187.5 21.875 187.5C19.3886 187.5 17.004 186.512 15.2459 184.754C13.4877 182.996 12.5 180.611 12.5 178.125V162.5H31.25V178.125ZM162.5 21.875V178.125C162.493 180.609 161.502 182.989 159.746 184.746C157.989 186.502 155.609 187.493 153.125 187.5H34.2813C36.3589 184.816 37.4905 181.519 37.5 178.125V21.875C37.5074 19.3909 38.4975 17.0106 40.2541 15.2541C42.0106 13.4975 44.3909 12.5074 46.875 12.5H165.719C163.641 15.1844 162.509 18.4805 162.5 21.875V21.875ZM187.5 37.5H168.75V21.875C168.75 19.3886 169.738 17.004 171.496 15.2459C173.254 13.4877 175.639 12.5 178.125 12.5C180.611 12.5 182.996 13.4877 184.754 15.2459C186.512 17.004 187.5 19.3886 187.5 21.875V37.5Z" fill="#21209C"/>
<path d="M100 56.25C100.829 56.25 101.624 56.5792 102.21 57.1653C102.796 57.7513 103.125 58.5462 103.125 59.375C103.125 60.2038 103.454 60.9987 104.04 61.5847C104.626 62.1708 105.421 62.5 106.25 62.5H118.75C119.579 62.5 120.374 62.1708 120.96 61.5847C121.546 60.9987 121.875 60.2038 121.875 59.375C121.868 55.2388 120.691 51.1889 118.479 47.6939C116.267 44.1989 113.11 41.4014 109.375 39.625V34.375C109.375 33.5462 109.046 32.7513 108.46 32.1653C107.874 31.5792 107.079 31.25 106.25 31.25H93.75C92.9212 31.25 92.1263 31.5792 91.5403 32.1653C90.9542 32.7513 90.625 33.5462 90.625 34.375V39.5906C87.5921 41.0116 84.9294 43.1154 82.8453 45.7372C80.7613 48.3591 79.3125 51.4279 78.6125 54.7031C77.9182 57.8981 77.9481 61.2079 78.7002 64.3898C79.4522 67.5716 80.9072 70.5446 82.9584 73.0907C85.0096 75.6367 87.6049 77.6911 90.5539 79.103C93.5028 80.5149 96.7305 81.2485 100 81.25C100.618 81.25 101.222 81.4333 101.736 81.7767C102.25 82.12 102.651 82.6081 102.887 83.1791C103.124 83.7501 103.186 84.3785 103.065 84.9847C102.944 85.5909 102.647 86.1477 102.21 86.5847C101.773 87.0218 101.216 87.3194 100.61 87.44C100.003 87.5605 99.3751 87.4986 98.8041 87.2621C98.2331 87.0256 97.745 86.6251 97.4016 86.1112C97.0582 85.5973 96.875 84.9931 96.875 84.375C96.875 83.5462 96.5457 82.7513 95.9597 82.1653C95.3736 81.5792 94.5788 81.25 93.75 81.25H81.25C80.4212 81.25 79.6263 81.5792 79.0403 82.1653C78.4542 82.7513 78.125 83.5462 78.125 84.375C78.1316 88.5109 79.3091 92.5603 81.5212 96.0549C83.7333 99.5495 86.8896 102.346 90.625 104.122V109.375C90.625 110.204 90.9542 110.999 91.5403 111.585C92.1263 112.171 92.9212 112.5 93.75 112.5H106.25C107.079 112.5 107.874 112.171 108.46 111.585C109.046 110.999 109.375 110.204 109.375 109.375V104.122C113.853 101.988 117.472 98.3955 119.639 93.9341C121.807 89.4727 122.394 84.4071 121.304 79.5682C120.214 74.7294 117.512 70.4046 113.641 67.3033C109.77 64.202 104.96 62.5083 100 62.5C99.1712 62.5 98.3763 62.1708 97.7903 61.5847C97.2042 60.9987 96.875 60.2038 96.875 59.375C96.875 58.5462 97.2042 57.7513 97.7903 57.1653C98.3763 56.5792 99.1712 56.25 100 56.25ZM100 68.75C103.678 68.7602 107.235 70.0676 110.044 72.442C112.853 74.8165 114.734 78.1058 115.356 81.7309C115.979 85.356 115.302 89.0844 113.446 92.2599C111.59 95.4353 108.673 97.8542 105.209 99.0906C104.6 99.3057 104.073 99.7043 103.7 100.231C103.326 100.759 103.126 101.388 103.125 102.034V106.25H96.875V102.034C96.8744 101.388 96.6736 100.759 96.3004 100.231C95.9271 99.7043 95.3997 99.3057 94.7906 99.0906C92.2519 98.1907 89.9883 96.6511 88.2185 94.6207C86.4487 92.5903 85.2325 90.1377 84.6875 87.5H91.1531C91.7259 89.1201 92.733 90.5516 94.0643 91.6382C95.3956 92.7247 96.9999 93.4244 98.702 93.6608C100.404 93.8973 102.138 93.6614 103.715 92.9789C105.292 92.2964 106.652 91.1936 107.644 89.7909C108.637 88.3883 109.225 86.7398 109.344 85.0255C109.464 83.3113 109.109 81.5972 108.32 80.0707C107.531 78.5441 106.338 77.2637 104.871 76.3695C103.403 75.4752 101.718 75.0015 100 75C97.6748 75.0037 95.3783 74.4866 93.279 73.4868C91.1798 72.4869 89.3311 71.0296 87.8687 69.2219C86.3919 67.3878 85.3446 65.2463 84.8038 62.9545C84.263 60.6627 84.2425 58.2789 84.7437 55.9781C85.3023 53.3837 86.5204 50.977 88.2802 48.9905C90.0401 47.004 92.2824 45.5048 94.7906 44.6375C95.4007 44.4221 95.9288 44.0226 96.3022 43.4942C96.6755 42.9658 96.8757 42.3345 96.875 41.6875V37.5H103.125V41.7125C103.126 42.3584 103.326 42.9883 103.7 43.5155C104.073 44.0426 104.6 44.4412 105.209 44.6562C107.748 45.5568 110.012 47.0969 111.782 49.1278C113.552 51.1587 114.768 53.6118 115.312 56.25H108.841C108.268 54.6296 107.26 53.1979 105.929 52.1114C104.597 51.0248 102.993 50.3252 101.29 50.089C99.5878 49.8528 97.8533 50.0891 96.2762 50.7721C94.6991 51.455 93.34 52.5584 92.3476 53.9616C91.3552 55.3648 90.7676 57.0138 90.6491 58.7284C90.5305 60.4429 90.8856 62.1571 91.6754 63.6835C92.4653 65.2099 93.6596 66.4898 95.1277 67.3834C96.5958 68.2769 98.2813 68.7497 100 68.75Z" fill="#21209C"/>
<path d="M100 18.75C89.4929 18.75 79.2217 21.8657 70.4854 27.7032C61.749 33.5406 54.9398 41.8376 50.9189 51.5449C46.898 61.2523 45.846 71.9339 47.8958 82.2392C49.9456 92.5444 55.0053 102.01 62.435 109.44C69.8646 116.87 79.3306 121.929 89.6359 123.979C99.9411 126.029 110.623 124.977 120.33 120.956C130.037 116.935 138.334 110.126 144.172 101.39C150.009 92.6533 153.125 82.3821 153.125 71.875C153.109 57.7902 147.507 44.2868 137.548 34.3273C127.588 24.3678 114.085 18.7657 100 18.75V18.75ZM100 118.75C90.729 118.75 81.6662 116.001 73.9577 110.85C66.2491 105.699 60.241 98.3786 56.6932 89.8133C53.1453 81.248 52.217 71.823 54.0257 62.7301C55.8344 53.6373 60.2988 45.285 66.8544 38.7294C73.41 32.1738 81.7623 27.7094 90.8552 25.9007C99.948 24.092 109.373 25.0203 117.938 28.5681C126.504 32.116 133.824 38.1241 138.975 45.8326C144.126 53.5412 146.875 62.604 146.875 71.875C146.861 84.3027 141.918 96.2174 133.13 105.005C124.342 113.793 112.428 118.736 100 118.75V118.75Z" fill="#21209C"/>
<path d="M146.875 131.25H53.125C52.2962 131.25 51.5013 131.579 50.9153 132.165C50.3292 132.751 50 133.546 50 134.375V146.875C50 147.704 50.3292 148.499 50.9153 149.085C51.5013 149.671 52.2962 150 53.125 150H146.875C147.704 150 148.499 149.671 149.085 149.085C149.671 148.499 150 147.704 150 146.875V134.375C150 133.546 149.671 132.751 149.085 132.165C148.499 131.579 147.704 131.25 146.875 131.25ZM143.75 143.75H56.25V137.5H143.75V143.75Z" fill="#21209C"/>
<path d="M50 156.25H62.5V162.5H50V156.25Z" fill="#21209C"/>
<path d="M68.75 156.25H150V162.5H68.75V156.25Z" fill="#21209C"/>
<path d="M68.75 168.75H150V175H68.75V168.75Z" fill="#21209C"/>
<path d="M50 168.75H62.5V175H50V168.75Z" fill="#21209C"/>
</svg>
