<svg width="200" height="200" viewBox="0 0 200 200" fill="none" xmlns="http://www.w3.org/2000/svg">
<path d="M178.125 9.375H21.875C18.5598 9.375 15.3804 10.692 13.0362 13.0362C10.692 15.3804 9.375 18.5598 9.375 21.875V134.375H190.625V21.875C190.625 18.5598 189.308 15.3804 186.964 13.0362C184.62 10.692 181.44 9.375 178.125 9.375ZM71.875 121.875C61.9859 121.875 52.3189 118.943 44.0965 113.448C35.874 107.954 29.4654 100.145 25.681 91.0092C21.8966 81.8729 20.9065 71.8195 22.8357 62.1205C24.765 52.4214 29.527 43.5123 36.5197 36.5197C43.5123 29.527 52.4214 24.765 62.1205 22.8357C71.8195 20.9065 81.8729 21.8966 91.0092 25.681C100.145 29.4654 107.954 35.874 113.448 44.0965C118.943 52.3189 121.875 61.9859 121.875 71.875C121.875 85.1358 116.607 97.8535 107.23 107.23C97.8535 116.607 85.1358 121.875 71.875 121.875V121.875ZM156.875 101.688L146.875 121.875L141.25 74.625L179.344 103.125L156.875 101.688Z" fill="#F1F1F1"/>
<path d="M84.375 153.125H115.625V171.875H84.375V153.125Z" fill="#F1F1F1"/>
<path d="M71.875 53.125C73.5311 53.1299 75.1179 53.79 76.289 54.961C77.46 56.1321 78.1201 57.7189 78.125 59.375H90.625C90.6247 55.5003 89.4222 51.7211 87.1833 48.5587C84.9444 45.3963 81.7795 43.0064 78.125 41.7188V34.375H65.625V41.6875C61.4479 43.1569 57.9257 46.0572 55.6821 49.8747C53.4385 53.6922 52.6184 58.1806 53.367 62.5449C54.1156 66.9091 56.3845 70.8676 59.7721 73.7192C63.1596 76.5709 67.447 78.1316 71.875 78.125C73.1112 78.125 74.3195 78.4916 75.3473 79.1783C76.3751 79.8651 77.1762 80.8412 77.6493 81.9832C78.1223 83.1253 78.2461 84.3819 78.0049 85.5943C77.7638 86.8067 77.1685 87.9203 76.2944 88.7944C75.4204 89.6685 74.3067 90.2638 73.0943 90.5049C71.882 90.7461 70.6253 90.6223 69.4832 90.1492C68.3412 89.6762 67.3651 88.8751 66.6783 87.8473C65.9916 86.8195 65.625 85.6111 65.625 84.375H53.125C53.1253 88.2497 54.3279 92.0289 56.5667 95.1913C58.8056 98.3537 61.9705 100.744 65.625 102.031V109.375H78.125V102.031C82.2801 100.546 85.7783 97.6436 88.0043 93.8338C90.2302 90.024 91.0413 85.5512 90.2947 81.2024C89.5481 76.8536 87.2918 72.9074 83.9226 70.0582C80.5535 67.2089 76.2874 65.6391 71.875 65.625C70.2174 65.625 68.6277 64.9665 67.4556 63.7944C66.2835 62.6223 65.625 61.0326 65.625 59.375C65.625 57.7174 66.2835 56.1277 67.4556 54.9556C68.6277 53.7835 70.2174 53.125 71.875 53.125V53.125Z" fill="#F1F1F1"/>
<path d="M178.125 6.25H21.875C17.731 6.25 13.7567 7.8962 10.8265 10.8265C7.8962 13.7567 6.25 17.731 6.25 21.875V140.625C6.25 144.769 7.8962 148.743 10.8265 151.674C13.7567 154.604 17.731 156.25 21.875 156.25H81.25V168.75H65.625C63.1409 168.757 60.7606 169.748 59.0041 171.504C57.2475 173.261 56.2574 175.641 56.25 178.125V190.625C56.25 191.454 56.5792 192.249 57.1653 192.835C57.7513 193.421 58.5462 193.75 59.375 193.75H140.625C141.454 193.75 142.249 193.421 142.835 192.835C143.421 192.249 143.75 191.454 143.75 190.625V178.125C143.743 175.641 142.752 173.261 140.996 171.504C139.239 169.748 136.859 168.757 134.375 168.75H118.75V156.25H178.125C182.269 156.25 186.243 154.604 189.174 151.674C192.104 148.743 193.75 144.769 193.75 140.625V21.875C193.75 17.731 192.104 13.7567 189.174 10.8265C186.243 7.8962 182.269 6.25 178.125 6.25V6.25ZM134.375 175C135.204 175 135.999 175.329 136.585 175.915C137.171 176.501 137.5 177.296 137.5 178.125V187.5H62.5V178.125C62.5 177.296 62.8292 176.501 63.4153 175.915C64.0013 175.329 64.7962 175 65.625 175H134.375ZM87.5 168.75V156.25H112.5V168.75H87.5ZM187.5 140.625C187.493 143.109 186.502 145.489 184.746 147.246C182.989 149.002 180.609 149.993 178.125 150H21.875C19.3909 149.993 17.0106 149.002 15.2541 147.246C13.4975 145.489 12.5074 143.109 12.5 140.625V137.5H187.5V140.625ZM187.5 131.25H12.5V21.875C12.5074 19.3909 13.4975 17.0106 15.2541 15.2541C17.0106 13.4975 19.3909 12.5074 21.875 12.5H178.125C180.609 12.5074 182.989 13.4975 184.746 15.2541C186.502 17.0106 187.493 19.3909 187.5 21.875V131.25Z" fill="#21209C"/>
<path d="M93.75 140.625H106.25V146.875H93.75V140.625Z" fill="#21209C"/>
<path d="M71.875 87.5C71.0462 87.5 70.2513 87.1708 69.6653 86.5847C69.0792 85.9987 68.75 85.2038 68.75 84.375C68.75 83.5462 68.4208 82.7513 67.8347 82.1653C67.2486 81.5792 66.4538 81.25 65.625 81.25H53.125C52.2962 81.25 51.5013 81.5792 50.9153 82.1653C50.3292 82.7513 50 83.5462 50 84.375C50.0074 88.5107 51.1852 92.5599 53.3972 96.0543C55.6092 99.5487 58.7651 102.346 62.5 104.122V109.375C62.5 110.204 62.8292 110.999 63.4153 111.585C64.0013 112.171 64.7962 112.5 65.625 112.5H78.125C78.9538 112.5 79.7486 112.171 80.3347 111.585C80.9208 110.999 81.25 110.204 81.25 109.375V104.122C85.7275 101.988 89.3469 98.3955 91.5144 93.9341C93.6819 89.4727 94.2688 84.4071 93.1789 79.5682C92.089 74.7294 89.3869 70.4046 85.516 67.3033C81.6451 64.202 76.8351 62.5083 71.875 62.5C71.2569 62.5 70.6527 62.3167 70.1388 61.9733C69.6249 61.63 69.2244 61.1419 68.9879 60.5709C68.7513 59.9999 68.6895 59.3715 68.81 58.7653C68.9306 58.1591 69.2282 57.6023 69.6653 57.1653C70.1023 56.7282 70.6591 56.4306 71.2653 56.31C71.8715 56.1895 72.4999 56.2514 73.0709 56.4879C73.6419 56.7244 74.13 57.1249 74.4733 57.6388C74.8167 58.1527 75 58.7569 75 59.375C75 60.2038 75.3292 60.9987 75.9153 61.5847C76.5013 62.1708 77.2962 62.5 78.125 62.5H90.625C91.4538 62.5 92.2486 62.1708 92.8347 61.5847C93.4208 60.9987 93.75 60.2038 93.75 59.375C93.7428 55.2388 92.5652 51.1892 90.3531 47.6942C88.1411 44.1992 84.9851 41.4017 81.25 39.625V34.375C81.25 33.5462 80.9208 32.7513 80.3347 32.1653C79.7486 31.5792 78.9538 31.25 78.125 31.25H65.625C64.7962 31.25 64.0013 31.5792 63.4153 32.1653C62.8292 32.7513 62.5 33.5462 62.5 34.375V39.5906C59.4674 41.012 56.8049 43.1159 54.7209 45.7377C52.6369 48.3595 51.188 51.428 50.4875 54.7031C49.7926 57.8981 49.8221 61.2082 50.5739 64.3903C51.3257 67.5724 52.7807 70.5457 54.832 73.0918C56.8833 75.638 59.4789 77.6924 62.4281 79.1041C65.3773 80.5159 68.6053 81.2491 71.875 81.25C72.7038 81.25 73.4986 81.5792 74.0847 82.1653C74.6708 82.7513 75 83.5462 75 84.375C75 85.2038 74.6708 85.9987 74.0847 86.5847C73.4986 87.1708 72.7038 87.5 71.875 87.5ZM71.875 75C69.5498 75.0037 67.2533 74.4866 65.1541 73.4868C63.0548 72.4869 61.2061 71.0296 59.7437 69.2219C58.2681 67.3872 57.2215 65.2456 56.6808 62.954C56.1401 60.6625 56.1189 58.279 56.6187 55.9781C57.1796 53.3842 58.3988 50.9783 60.159 48.992C61.9192 47.0058 64.161 45.5062 66.6687 44.6375C67.2787 44.4214 67.8066 44.0212 68.1794 43.4922C68.5522 42.9632 68.7516 42.3315 68.75 41.6844V37.5H75V41.7125C74.9997 42.3586 75.1997 42.9889 75.5724 43.5166C75.9451 44.0443 76.4723 44.4436 77.0812 44.6594C79.6211 45.5578 81.886 47.0969 83.6565 49.1275C85.4271 51.1581 86.6433 53.6114 87.1875 56.25H80.7156C80.1427 54.6296 79.1354 53.1979 77.8038 52.1114C76.4722 51.0248 74.8676 50.3252 73.1652 50.089C71.4629 49.8528 69.7283 50.0891 68.1512 50.7721C66.5741 51.455 65.215 52.5584 64.2226 53.9616C63.2302 55.3648 62.6426 57.0138 62.5241 58.7284C62.4056 60.4429 62.7606 62.1571 63.5505 63.6835C64.3403 65.2099 65.5346 66.4898 67.0027 67.3834C68.4708 68.2769 70.1563 68.7497 71.875 68.75C75.5513 68.7629 79.1053 70.0717 81.912 72.4462C84.7186 74.8207 86.5981 78.1088 87.2199 81.7321C87.8417 85.3555 87.166 89.0821 85.3116 92.2564C83.4572 95.4308 80.5429 97.8496 77.0812 99.0875C76.4723 99.3033 75.9451 99.7025 75.5724 100.23C75.1997 100.758 74.9997 101.388 75 102.034V106.25H68.75V102.034C68.7503 101.388 68.5503 100.758 68.1776 100.23C67.8048 99.7025 67.2777 99.3033 66.6687 99.0875C64.1293 98.1893 61.8647 96.6507 60.0941 94.6207C58.3236 92.5907 57.1072 90.138 56.5625 87.5H63.0281C63.6009 89.1201 64.608 90.5516 65.9393 91.6382C67.2706 92.7247 68.8749 93.4244 70.577 93.6608C72.279 93.8973 74.0133 93.6614 75.5904 92.9789C77.1674 92.2964 78.5266 91.1936 79.5193 89.7909C80.512 88.3883 81.1001 86.7398 81.2194 85.0255C81.3386 83.3113 80.9844 81.5972 80.1954 80.0707C79.4064 78.5441 78.2131 77.2637 76.7457 76.3695C75.2783 75.4752 73.5934 75.0015 71.875 75V75Z" fill="#21209C"/>
<path d="M71.875 125C82.3821 125 92.6533 121.884 101.39 116.047C110.126 110.209 116.935 101.912 120.956 92.2051C124.977 82.4978 126.029 71.8161 123.979 61.5108C121.929 51.2056 116.87 41.7396 109.44 34.31C102.01 26.8803 92.5444 21.8206 82.2392 19.7708C71.9339 17.721 61.2523 18.773 51.5449 22.7939C41.8376 26.8148 33.5406 33.624 27.7032 42.3604C21.8657 51.0967 18.75 61.3679 18.75 71.875C18.7657 85.9598 24.3678 99.4633 34.3273 109.423C44.2868 119.382 57.7902 124.984 71.875 125V125ZM71.875 25C81.146 25 90.2088 27.7492 97.9174 32.8999C105.626 38.0506 111.634 45.3715 115.182 53.9367C118.73 62.502 119.658 71.927 117.849 81.0199C116.041 90.1127 111.576 98.4651 105.021 105.021C98.465 111.576 90.1127 116.041 81.0199 117.849C71.927 119.658 62.502 118.73 53.9367 115.182C45.3714 111.634 38.0506 105.626 32.8999 97.9174C27.7492 90.2088 25 81.146 25 71.875C25.0141 59.4473 29.9572 47.5326 38.7449 38.7449C47.5326 29.9572 59.4473 25.0141 71.875 25V25Z" fill="#21209C"/>
<path d="M139.688 71.9031C139.158 72.209 138.729 72.6637 138.455 73.2109C138.181 73.7581 138.074 74.3736 138.147 74.9812L143.772 122.247C143.852 122.915 144.147 123.539 144.61 124.027C145.074 124.514 145.683 124.839 146.346 124.953C147.009 125.067 147.692 124.963 148.291 124.658C148.891 124.353 149.376 123.862 149.675 123.259L158.738 104.928L179.15 106.25C179.823 106.294 180.492 106.12 181.058 105.753C181.624 105.385 182.055 104.845 182.288 104.212C182.522 103.579 182.544 102.888 182.351 102.241C182.159 101.595 181.763 101.028 181.222 100.625L143.125 72.1093C142.635 71.742 142.048 71.5267 141.437 71.49C140.826 71.4533 140.218 71.597 139.688 71.9031V71.9031ZM169.063 99.3312L157.063 98.5562C156.447 98.5193 155.834 98.664 155.301 98.9724C154.767 99.2807 154.335 99.7391 154.059 100.291L148.747 111.069L145.219 81.4812L169.063 99.3312Z" fill="#21209C"/>
<path d="M131.25 25H175V31.25H131.25V25Z" fill="#21209C"/>
<path d="M131.25 43.75H175V50H131.25V43.75Z" fill="#21209C"/>
<path d="M131.25 62.5H175V68.75H131.25V62.5Z" fill="#21209C"/>
</svg>
