<svg width="200" height="200" viewBox="0 0 200 200" fill="none" xmlns="http://www.w3.org/2000/svg">
<path d="M115.625 77V121.875H103.125C101.469 121.88 99.8821 122.54 98.711 123.711C97.54 124.882 96.8799 126.469 96.875 128.125V178.125H75V153.75L84.375 159.375V146.875H93.75V131.438L83.875 128.813L81.25 128.125V113.469C88.063 111.071 94.0368 106.754 98.4506 101.037C102.864 95.3199 105.53 88.448 106.125 81.25H106.25C108.025 81.251 109.78 80.8723 111.397 80.1392C113.014 79.4062 114.456 78.3359 115.625 77Z" fill="#F1F1F1"/>
<path d="M115.625 56.25V60.5C115.465 60.2877 115.287 60.0891 115.094 59.9063C112.743 57.5699 109.565 56.2559 106.25 56.25L84.375 40.625L31.25 56.25C27.9355 56.2559 24.7573 57.5699 22.4063 59.9063C22.213 60.0891 22.0353 60.2877 21.875 60.5V56.25C21.875 43.818 26.8136 31.8951 35.6044 23.1044C44.3951 14.3136 56.318 9.375 68.75 9.375C81.182 9.375 93.1049 14.3136 101.896 23.1044C110.686 31.8951 115.625 43.818 115.625 56.25V56.25Z" fill="#F1F1F1"/>
<path d="M87.5 81.25C89.1561 81.2451 90.7429 80.585 91.914 79.414C93.085 78.2429 93.7451 76.6561 93.75 75V68.75C93.7451 67.0939 93.085 65.5071 91.914 64.336C90.7429 63.165 89.1561 62.5049 87.5 62.5H81.25C79.5939 62.5049 78.0071 63.165 76.836 64.336C75.665 65.5071 75.0049 67.0939 75 68.75V75C75.0049 76.6561 75.665 78.2429 76.836 79.414C78.0071 80.585 79.5939 81.2451 81.25 81.25H87.5Z" fill="#F1F1F1"/>
<path d="M65.625 190.625H9.375V145.438C9.37579 144.06 9.82872 142.721 10.6642 141.626C11.4997 140.53 12.6717 139.74 14 139.375L21.9063 137.281L21.875 137.156V77C23.0443 78.3359 24.4858 79.4062 26.1027 80.1392C27.7197 80.8723 29.4747 81.251 31.25 81.25H31.375C31.9702 88.448 34.6355 95.3199 39.0494 101.037C43.4632 106.754 49.437 111.071 56.25 113.469V128.125L53.625 128.813L43.75 131.469V146.875H53.125V159.375L62.5 153.75V178.125H59.375V184.375C59.3799 186.031 60.04 187.618 61.211 188.789C62.3821 189.96 63.9689 190.62 65.625 190.625V190.625Z" fill="#F1F1F1"/>
<path d="M56.25 81.25C57.9061 81.2451 59.4929 80.585 60.664 79.414C61.835 78.2429 62.4951 76.6561 62.5 75V68.75C62.4951 67.0939 61.835 65.5071 60.664 64.336C59.4929 63.165 57.9061 62.5049 56.25 62.5H50C48.3439 62.5049 46.7571 63.165 45.586 64.336C44.415 65.5071 43.7549 67.0939 43.75 68.75V75C43.7549 76.6561 44.415 78.2429 45.586 79.414C46.7571 80.585 48.3439 81.2451 50 81.25H56.25Z" fill="#F1F1F1"/>
<path d="M68.75 103.125C71.2364 103.125 73.621 102.137 75.3791 100.379C77.1373 98.621 78.125 96.2364 78.125 93.75H71.875C71.875 94.5788 71.5458 95.3737 70.9597 95.9597C70.3737 96.5458 69.5788 96.875 68.75 96.875C67.9212 96.875 67.1263 96.5458 66.5403 95.9597C65.9542 95.3737 65.625 94.5788 65.625 93.75H59.375C59.375 96.2364 60.3627 98.621 62.1209 100.379C63.879 102.137 66.2636 103.125 68.75 103.125Z" fill="#21209C"/>
<path d="M184.375 118.75H118.75V78.0312C120.778 75.3619 121.875 72.1021 121.875 68.75C121.875 65.3979 120.778 62.1381 118.75 59.4688V56.25C118.75 42.9892 113.482 30.2715 104.105 20.8947C94.7285 11.5178 82.0108 6.25 68.75 6.25C55.4892 6.25 42.7715 11.5178 33.3947 20.8947C24.0178 30.2715 18.75 42.9892 18.75 56.25V59.4688C16.7224 62.1381 15.6246 65.3979 15.6246 68.75C15.6246 72.1021 16.7224 75.3619 18.75 78.0312V134.875L13.1563 136.375C11.1743 136.926 9.42673 138.109 8.1799 139.745C6.93306 141.382 6.25534 143.38 6.25 145.438V190.625C6.25 191.454 6.57924 192.249 7.16529 192.835C7.75134 193.421 8.5462 193.75 9.375 193.75H190.625C191.454 193.75 192.249 193.421 192.835 192.835C193.421 192.249 193.75 191.454 193.75 190.625V128.125C193.743 125.641 192.752 123.261 190.996 121.504C189.239 119.748 186.859 118.757 184.375 118.75V118.75ZM115.625 68.75C115.616 70.6795 115.01 72.559 113.892 74.131C112.773 75.703 111.195 76.8907 109.375 77.5312V59.9375C110.679 60.4044 111.871 61.1388 112.875 62.0938C114.633 63.8637 115.621 66.2556 115.625 68.75ZM68.75 12.5C80.0245 12.5141 90.8583 16.8803 98.992 24.6879C107.126 32.4955 111.931 43.1417 112.406 54.4062C110.818 53.7361 109.127 53.345 107.406 53.25L86.1875 38.0937C85.8026 37.8206 85.3617 37.6368 84.8967 37.5557C84.4318 37.4746 83.9546 37.4983 83.5 37.625L30.5937 53.1875C28.7018 53.2579 26.8383 53.6708 25.0937 54.4062C25.5742 43.1436 30.3814 32.5005 38.5138 24.694C46.6463 16.8875 57.4771 12.5195 68.75 12.5V12.5ZM68.75 144.625L58.5 130.25C59.051 129.679 59.3638 128.919 59.375 128.125V117.625C65.535 119.125 71.965 119.125 78.125 117.625V128.125C78.1362 128.919 78.449 129.679 79 130.25L68.75 144.625ZM85.1562 132.406L90.625 133.844V143.75H84.375C83.5462 143.75 82.7513 144.079 82.1653 144.665C81.5792 145.251 81.25 146.046 81.25 146.875V153.844L73.25 149.063L85.1562 132.406ZM71.875 155.531V175H65.625V155.531L68.75 153.656L71.875 155.531ZM53.125 143.75H46.875V133.844L52.3438 132.406L64.25 149.063L56.25 153.844V146.875C56.25 146.046 55.9208 145.251 55.3347 144.665C54.7487 144.079 53.9538 143.75 53.125 143.75ZM25 133.219V83.0312C26.1595 83.5346 27.3772 83.8916 28.625 84.0937C29.6532 91.0124 32.4482 97.5491 36.7398 103.072C41.0315 108.596 46.6749 112.919 53.125 115.625V125.719L25 133.219ZM68.75 112.5C59.635 112.494 50.8949 108.871 44.4496 102.425C38.0043 95.9801 34.3808 87.24 34.375 78.125V66.9062L40.625 73.1562V75C40.6324 77.4841 41.6225 79.8644 43.3791 81.6209C45.1356 83.3775 47.5159 84.3676 50 84.375H56.25C58.7341 84.3676 61.1144 83.3775 62.8709 81.6209C64.6275 79.8644 65.6176 77.4841 65.625 75H71.875C71.8824 77.4841 72.8725 79.8644 74.6291 81.6209C76.3856 83.3775 78.7659 84.3676 81.25 84.375H87.5C89.9841 84.3676 92.3644 83.3775 94.1209 81.6209C95.8775 79.8644 96.8676 77.4841 96.875 75V73.1562L103.125 66.9062V78.125C103.119 87.24 99.4957 95.9801 93.0504 102.425C86.6051 108.871 77.865 112.494 68.75 112.5V112.5ZM46.875 75V68.75C46.875 67.9212 47.2042 67.1263 47.7903 66.5403C48.3763 65.9542 49.1712 65.625 50 65.625H56.25C57.0788 65.625 57.8737 65.9542 58.4597 66.5403C59.0458 67.1263 59.375 67.9212 59.375 68.75V75C59.375 75.8288 59.0458 76.6237 58.4597 77.2097C57.8737 77.7958 57.0788 78.125 56.25 78.125H50C49.1712 78.125 48.3763 77.7958 47.7903 77.2097C47.2042 76.6237 46.875 75.8288 46.875 75ZM78.125 75V68.75C78.125 67.9212 78.4542 67.1263 79.0403 66.5403C79.6263 65.9542 80.4212 65.625 81.25 65.625H87.5C88.3288 65.625 89.1237 65.9542 89.7097 66.5403C90.2958 67.1263 90.625 67.9212 90.625 68.75V75C90.625 75.8288 90.2958 76.6237 89.7097 77.2097C89.1237 77.7958 88.3288 78.125 87.5 78.125H81.25C80.4212 78.125 79.6263 77.7958 79.0403 77.2097C78.4542 76.6237 78.125 75.8288 78.125 75ZM96.125 65.0937C95.4073 63.3992 94.2068 61.9534 92.6731 60.9365C91.1393 59.9196 89.3402 59.3765 87.5 59.375H81.25C78.7659 59.3824 76.3856 60.3725 74.6291 62.1291C72.8725 63.8856 71.8824 66.2659 71.875 68.75H65.625C65.6176 66.2659 64.6275 63.8856 62.8709 62.1291C61.1144 60.3725 58.7341 59.3824 56.25 59.375H50C48.1598 59.3765 46.3607 59.9196 44.8269 60.9365C43.2932 61.9534 42.0927 63.3992 41.375 65.0937L34.7813 58.4687L83.8125 44.0625L103.125 57.8438V58.0938L96.125 65.0937ZM24.5937 62.125C25.5988 61.1491 26.8036 60.4028 28.125 59.9375V77.5625C26.6356 77.0355 25.3035 76.1406 24.2525 74.9609C23.2015 73.7813 22.4657 72.3551 22.1134 70.815C21.7611 69.2749 21.8038 67.6707 22.2374 66.1514C22.671 64.6322 23.4816 63.2471 24.5937 62.125V62.125ZM59.375 175C58.5462 175 57.7513 175.329 57.1653 175.915C56.5792 176.501 56.25 177.296 56.25 178.125V184.375C56.2585 185.441 56.4487 186.498 56.8125 187.5H12.5V145.438C12.5012 144.749 12.7279 144.08 13.1456 143.532C13.5632 142.985 14.1487 142.589 14.8125 142.406L40.625 135.531V146.875C40.625 147.704 40.9542 148.499 41.5403 149.085C42.1263 149.671 42.9212 150 43.75 150H50V159.375C49.9983 159.929 50.1453 160.474 50.4256 160.952C50.7059 161.43 51.1093 161.824 51.5938 162.094C52.0578 162.366 52.5871 162.506 53.125 162.5C53.6859 162.5 54.2364 162.349 54.7188 162.063L59.375 159.281V175ZM93.75 187.5H65.625C64.7962 187.5 64.0013 187.171 63.4153 186.585C62.8292 185.999 62.5 185.204 62.5 184.375V181.25H93.75V187.5ZM93.75 175H78.125V159.281L82.7812 162.063C83.2636 162.349 83.8141 162.5 84.375 162.5C84.9129 162.506 85.4422 162.366 85.9062 162.094C86.3907 161.824 86.7941 161.43 87.0744 160.952C87.3547 160.474 87.5017 159.929 87.5 159.375V150H93.75V175ZM93.75 128.125V128.219L84.375 125.719V115.625C90.8251 112.919 96.4685 108.596 100.76 103.072C105.052 97.5491 107.847 91.0124 108.875 84.0937C110.125 83.9167 111.344 83.5698 112.5 83.0625V118.75H103.125C100.641 118.757 98.2606 119.748 96.5041 121.504C94.7475 123.261 93.7574 125.641 93.75 128.125V128.125ZM187.5 187.5H100V128.125C100 127.296 100.329 126.501 100.915 125.915C101.501 125.329 102.296 125 103.125 125H184.375C185.204 125 185.999 125.329 186.585 125.915C187.171 126.501 187.5 127.296 187.5 128.125V187.5Z" fill="#21209C"/>
<path d="M143.75 162.5C147.202 162.5 150 159.702 150 156.25C150 152.798 147.202 150 143.75 150C140.298 150 137.5 152.798 137.5 156.25C137.5 159.702 140.298 162.5 143.75 162.5Z" fill="#21209C"/>
<path d="M109.375 175H115.625V181.25H109.375V175Z" fill="#21209C"/>
<path d="M121.875 175H128.125V181.25H121.875V175Z" fill="#21209C"/>
<path d="M134.375 175H140.625V181.25H134.375V175Z" fill="#21209C"/>
<path d="M146.875 175H153.125V181.25H146.875V175Z" fill="#21209C"/>
<path d="M159.375 175H165.625V181.25H159.375V175Z" fill="#21209C"/>
<path d="M171.875 175H178.125V181.25H171.875V175Z" fill="#21209C"/>
</svg>
