<svg width="227" height="57" viewBox="0 0 227 57" fill="none" xmlns="http://www.w3.org/2000/svg">
<g clip-path="url(#clip0)">
<path fill-rule="evenodd" clip-rule="evenodd" d="M63.9282 42.4497V42.3417C63.9282 36.1422 68.6561 33.2802 75.4014 33.2802C78.2667 33.2802 80.3398 33.7572 82.3588 34.4472V33.9717C82.3588 30.6312 80.2857 28.7757 76.2508 28.7757C73.1675 28.7757 70.9922 29.3607 68.3915 30.3132L66.371 24.1647C69.5054 22.7862 72.5857 21.8862 77.4189 21.8862C81.8266 21.8862 85.0136 23.0532 87.0311 25.0662C89.1552 27.1842 90.1113 30.3132 90.1113 34.1292V50.6082H82.3046V47.5347C80.3398 49.7097 77.6323 51.1407 73.7012 51.1407C68.3374 51.1407 63.9282 48.0642 63.9282 42.4497ZM82.464 40.5927V39.1632C81.0839 38.5287 79.277 38.1042 77.3121 38.1042C73.859 38.1042 71.7349 39.4812 71.7349 42.0237V42.1317C71.7349 44.3022 73.5403 45.5757 76.1441 45.5757C79.9144 45.5757 82.464 43.5087 82.464 40.5927Z" fill="white"/>
<path fill-rule="evenodd" clip-rule="evenodd" d="M98.0264 22.2048H106.099V26.2338C107.96 23.8503 110.348 21.6753 114.44 21.6753C120.549 21.6753 124.103 25.7043 124.103 32.2233V50.6103H116.032V34.7658C116.032 30.9498 114.228 28.9908 111.144 28.9908C108.066 28.9908 106.099 30.9498 106.099 34.7658V50.6103H98.0264V22.2048Z" fill="white"/>
<path fill-rule="evenodd" clip-rule="evenodd" d="M132.076 22.2048H140.145V26.2338C142.004 23.8503 144.394 21.6753 148.486 21.6753C154.593 21.6753 158.15 25.7043 158.15 32.2233V50.6103H150.08V34.7658C150.08 30.9498 148.273 28.9908 145.191 28.9908C142.108 28.9908 140.145 30.9498 140.145 34.7658V50.6103H132.076V22.2048Z" fill="white"/>
<path fill-rule="evenodd" clip-rule="evenodd" d="M164.737 36.5684V36.4604C164.737 28.3529 170.527 21.6764 178.811 21.6764C188.32 21.6764 192.673 29.0429 192.673 37.0934C192.673 37.7354 192.621 38.4734 192.568 39.2174H172.755C173.554 42.8729 176.102 44.7809 179.713 44.7809C182.425 44.7809 184.39 43.9319 186.618 41.8664L191.241 45.9479C188.586 49.2314 184.76 51.2459 179.61 51.2459C171.056 51.2459 164.737 45.2579 164.737 36.5684ZM184.813 34.1789C184.336 30.5789 182.212 28.1429 178.811 28.1429C175.467 28.1429 173.29 30.5234 172.652 34.1789H184.813Z" fill="white"/>
<path fill-rule="evenodd" clip-rule="evenodd" d="M199.635 22.2048H207.706V27.9303C209.354 24.0093 212.007 21.4638 216.789 21.6753V30.1053H216.365C210.997 30.1053 207.706 33.3333 207.706 40.1178V50.6103H199.635V22.2048Z" fill="white"/>
<path fill-rule="evenodd" clip-rule="evenodd" d="M55.9859 57H11.5239C5.16944 57 -0.000450134 51.8415 -0.000450134 45.4995V11.502C-0.000450134 5.16 5.16944 0 11.5239 0H44.4585C50.816 0 55.9859 5.16 55.9859 11.502V57ZM11.5239 6.5715C8.79843 6.5715 6.58405 8.7825 6.58405 11.502V45.4995C6.58405 48.216 8.79843 50.4285 11.5239 50.4285H49.3984V11.502C49.3984 8.7825 47.184 6.5715 44.4585 6.5715H11.5239Z" fill="white"/>
<path fill-rule="evenodd" clip-rule="evenodd" d="M27.5419 24.1435H16.2279V16.618H47.0308V24.1435H35.7199V53.716H27.5419V24.1435Z" fill="white"/>
<path fill-rule="evenodd" clip-rule="evenodd" d="M222.365 57C220.101 57 218.26 55.1625 218.26 52.9035C218.26 50.6475 220.101 48.8085 222.365 48.8085C224.629 48.8085 226.471 50.6475 226.471 52.9035C226.471 55.1625 224.629 57 222.365 57ZM222.365 49.329C220.39 49.329 218.781 50.9325 218.781 52.9035C218.781 54.876 220.39 56.4795 222.365 56.4795C224.341 56.4795 225.949 54.876 225.949 52.9035C225.949 50.9325 224.341 49.329 222.365 49.329Z" fill="white"/>
<path fill-rule="evenodd" clip-rule="evenodd" d="M223.598 55.155L222.499 53.5995H221.514V55.155H220.728V50.691H222.723C223.751 50.691 224.384 51.2325 224.384 52.107C224.384 52.8465 223.943 53.292 223.317 53.466L224.525 55.155H223.598ZM222.658 51.405H221.514V52.9035H222.664C223.226 52.9035 223.586 52.6125 223.586 52.152C223.586 51.66 223.24 51.405 222.658 51.405Z" fill="white"/>
</g>
<defs>
<clipPath id="clip0">
<rect width="227" height="57" fill="white"/>
</clipPath>
</defs>
</svg>
